<?xml version="1.0" encoding="utf-8"?>
<!-- Generator: Adobe Illustrator 24.1.2, SVG Export Plug-In . SVG Version: 6.00 Build 0)  -->
<svg version="1.1" id="Layer_1" xmlns="http://www.w3.org/2000/svg" xmlns:xlink="http://www.w3.org/1999/xlink" x="0px" y="0px"
	 viewBox="0 0 1000 1000" style="enable-background:new 0 0 1000 1000;" xml:space="preserve">
<style type="text/css">
	.st0{fill:#FFFFFF;}
	.st1{fill:#E4E8EC;}
	.st2{fill:#FF901B;}
	.st3{fill:#00E7E9;}
	.st4{fill:#00D1C5;}
	.st5{fill:#FFF4E4;}
	.st6{fill:none;stroke:#171819;stroke-width:6;stroke-linecap:round;stroke-linejoin:round;stroke-miterlimit:10;}
	.st7{fill:#FFDEC5;}
	.st8{fill:#EFB58E;}
	.st9{fill:#171819;}
	.st10{fill:#B0AEFA;}
	.st11{fill:#DCDBFF;}
	.st12{fill:#FF9472;}
	.st13{fill:#EF7756;}
	.st14{fill:#FF4F7C;}
</style>
<rect class="st0" width="1000" height="1000"/>
<ellipse class="st1" cx="514.9" cy="787.6" rx="389.7" ry="45.2"/>
<path class="st2" d="M597,792H252.1c-27.8,0-50.4-22.6-50.4-50.4v-122c0-14.6,6.4-28.5,17.6-38l78-66.5h204.2l78,66.5
	c11.1,9.5,17.6,23.4,17.6,38L597,792L597,792z"/>
<path class="st3" d="M597,792H252.1c-27.8,0-50.4-22.6-50.4-50.4v-122c0-14.6,6.4-28.5,17.6-38l78-66.5h204.2l78,66.5
	c11.1,9.5,17.6,23.4,17.6,38L597,792L597,792z"/>
<path class="st4" d="M201.7,716.1v25.5c0,27.8,22.6,50.4,50.4,50.4H597v-25.5H252.1C224.3,766.5,201.7,743.9,201.7,716.1z"/>
<path class="st4" d="M579.4,581.5l-78-66.5H471l78,66.5c11.1,9.5,17.6,23.4,17.6,38V792H597V619.6C597,604.9,590.6,591,579.4,581.5z
	"/>
<polygon class="st5" points="329,536 399,586 469,536 "/>
<path class="st6" d="M597,792H252.1c-27.8,0-50.4-22.6-50.4-50.4v-122c0-14.6,6.4-28.5,17.6-38l78-66.5h204.2l78,66.5
	c11.1,9.5,17.6,23.4,17.6,38L597,792L597,792z"/>
<rect x="326.3" y="720.4" class="st7" width="78.4" height="71.6"/>
<rect x="326.3" y="776.2" class="st8" width="78.4" height="15.8"/>
<rect x="326.3" y="720.4" class="st6" width="78.4" height="71.6"/>
<path class="st6" d="M271,538l66,92c0,0,17-52,62-44c-65-48-70-50-70-50"/>
<path class="st6" d="M527.4,536.9l-66,92c0,0-17-52-62-44c65-48,70-50,70-50"/>
<line class="st6" x1="399" y1="586" x2="399" y2="753.9"/>
<circle class="st9" cx="423.5" cy="634.5" r="6.5"/>
<circle class="st9" cx="423.5" cy="676.5" r="6.5"/>
<g>
	<g>
		<path class="st10" d="M652.8,793.6H390.2c-10.1,0-18.2-8.2-18.2-18.2v-3.3c0-10.1,8.2-18.2,18.2-18.2H671v21.5
			C671,785.5,662.8,793.6,652.8,793.6z"/>
		<path class="st6" d="M652.8,793.6H390.2c-10.1,0-18.2-8.2-18.2-18.2v-3.3c0-10.1,8.2-18.2,18.2-18.2H671v21.5
			C671,785.5,662.8,793.6,652.8,793.6z"/>
	</g>
	<path class="st5" d="M845.6,793.7H594.8c-11.5,0-20.1-10.7-17.6-21.9l47.1-210.4c3.9-17.4,18.4-29.7,35-29.7h235.2
		c19.4,0,33.7,19.6,29.2,39.9L880.6,764C876.7,781.4,862.2,793.7,845.6,793.7z"/>
	<path class="st11" d="M845.6,793.7H594.8c-11.5,0-20.1-10.7-17.6-21.9l47.1-210.4c3.9-17.4,18.4-29.7,35-29.7h235.2
		c19.4,0,33.7,19.6,29.2,39.9L880.6,764C876.7,781.4,862.2,793.7,845.6,793.7z"/>
	<path class="st10" d="M857.6,784.5H606.7c-11.5,0-20.1-10.7-17.6-21.9l47.1-210.4c1.5-6.6,4.5-12.5,8.6-17.3
		c-10.1,4.8-17.8,14.4-20.5,26.4l-47.1,210.4c-2.5,11.2,6,21.9,17.6,21.9h250.8c10.3,0,19.8-4.7,26.4-12.4
		C867.6,783.3,862.7,784.5,857.6,784.5z"/>
	<path class="st10" d="M597.4,771.7l47.1-210.4c3.9-17.4,18.4-29.7,35-29.7h-20.2c-16.6,0-31.1,12.3-35,29.7l-47.1,210.4
		c-2.5,11.2,6,21.9,17.6,21.9H615C603.5,793.7,594.9,783,597.4,771.7z"/>
	<path class="st6" d="M845.6,793.7H594.8c-11.5,0-20.1-10.7-17.6-21.9l47.1-210.4c3.9-17.4,18.4-29.7,35-29.7h235.2
		c19.4,0,33.7,19.6,29.2,39.9L880.6,764C876.7,781.4,862.2,793.7,845.6,793.7z"/>
	<path class="st0" d="M771.5,645.4c0.1-1.6,0.5-3.2,0.9-4.7c-1.8-0.5-3.7-0.7-5.6-0.6c-13.2,0.5-26,12.8-28.6,27.6s6,26.4,19.2,26
		c12.6-0.4,24.8-11.7,28.2-25.5C776.5,664.9,770.5,655.8,771.5,645.4z"/>
</g>
<g>
	<path class="st7" d="M451.5,732.7H466c5.9,0,10.6,4.8,10.6,10.6l0,0c0,5.9-4.8,10.6-10.6,10.6h-31.4"/>
	<path class="st6" d="M447,732.7h19c5.9,0,10.6,4.8,10.6,10.6l0,0c0,5.9-4.8,10.6-10.6,10.6h-31.4"/>
</g>
<g>
	<path class="st7" d="M390,720.4h51.4c9.3,0,16.8,7.5,16.8,16.8l0,0c0,9.3-7.5,16.8-16.8,16.8h-51.2"/>
	<path class="st6" d="M390,720.4h51.4c9.3,0,16.8,7.5,16.8,16.8l0,0c0,9.3-7.5,16.8-16.8,16.8h-51.2"/>
</g>
<path class="st6" d="M400,732.7h21.6c5.9,0,10.6,4.8,10.6,10.6l0,0c0,5.9-4.8,10.6-10.6,10.6h-31.4"/>
<polyline class="st6" points="284.8,704.5 326.3,704.5 326.3,792 "/>
<g>
	<g>
		<path class="st7" d="M400.3,549h-5.1c-71.1,0-128.7-38.6-128.7-109.7V279.2H529v160.1C529,510.4,471.4,549,400.3,549z"/>
		<path class="st8" d="M267,312.9c0,0,23.2,40,86.9,42.3c97.4,3.4,135.9-46.9,135.9-46.9L267,312.9z"/>
		<path class="st8" d="M400.3,531.7h-5.1c-71.1,0-128.7-34.6-128.7-105.7v13.3c0,71.1,57.6,109.7,128.7,109.7h5.1
			c71.1,0,128.7-38.6,128.7-109.7V426C529,497.1,471.4,531.7,400.3,531.7z"/>
		<path class="st6" d="M400.3,549h-5.1c-71.1,0-128.7-38.6-128.7-109.7V279.2H529v160.1C529,510.4,471.4,549,400.3,549z"/>
		<path class="st12" d="M302,358c-13,45-35,35-35,35V273h37C304,273,310.3,329.2,302,358z"/>
		<path class="st13" d="M304.8,344c1.3-10,1.6-21.4,1.5-31.9l-39.3,0.8C267,312.9,277.8,331.5,304.8,344z"/>
		<path class="st6" d="M302,358c-13,45-35,35-35,35V273h37C304,273,310.3,329.2,302,358z"/>
		<g>
			<path class="st12" d="M496.6,213.3c-19-17.2-47.3-32.7-86.8-31.6c-0.5,7.8,5,24.7,15,33c-37.6-35-118.5-35.3-144.5-9.1
				c3.8,12.1,14.5,27.6,31.1,35.6c-47.3-10.9-80.3,12.6-83,21c8.3,20.7,27.1,42,38.6,50.7c38.8,29.1,145.9,40.4,212.3,1.9
				c3.8-2.2,7.3-4.4,10.5-6.5c-0.4,16.9,0.3,36.3,4.2,49.8c13,45,35,35,35,35V287C529,259,517.4,232.1,496.6,213.3z"/>
			<g>
				<path class="st13" d="M424.8,214.8L424.8,214.8c-2.4-3.4-8.8-6.2-19.1-13.3c-41.1-21.3-103.2-18.3-125.4,4.1
					c0.5,1.7,1.2,3.5,2,5.3c29.6-19.1,92.9-20.4,129.2,6.8C416.2,221.2,424.8,220.7,424.8,214.8z"/>
				<path class="st13" d="M311.8,242.8c0-0.7-0.2-1.2-0.4-1.6c-1.9-0.4-8.8-1.1-23.4-2.8c-34.5-0.3-57.4,16.9-59.6,23.9
					c0.4,1.1,0.9,2.2,1.4,3.3c11.6-9.3,39.8-21.7,73.8-15.6C308,250.7,312.1,247.3,311.8,242.8z"/>
				<path class="st13" d="M496.6,213.3c-19-17.2-47.3-32.7-86.8-31.6c-0.2,2.8,0.4,6.7,1.7,11c28.3,0.6,52.9,10.8,67.3,25.6
					c28,28.8,11.4,71.4-0.9,86.6C463,323.3,454,326.4,454,326.4s29.7-8.5,35.7-18.2c-5,26.2,7.4,81.7,34.1,85.7
					c3.2,0,5.2-0.9,5.2-0.9V287C529,259,517.4,232.1,496.6,213.3z"/>
			</g>
			<path class="st6" d="M507.2,224c-18.5-20.9-49.8-43.7-97.4-42.3c-0.5,7.8,5,24.7,15,33c-37.6-35-118.5-35.3-144.5-9.1
				c3.8,12.1,14.5,27.6,31.1,35.6c-47.3-10.9-80.3,12.6-83,21c8.3,20.7,27.1,42,38.6,50.7c38.8,29.1,145.9,40.4,212.3,1.9
				c3.8-2.2,7.3-4.4,10.5-6.5c-0.4,16.9,0.3,36.3,4.2,49.8c13,45,35,35,35,35V282C529,260.7,521.4,240,507.2,224z"/>
			<path class="st6" d="M509.3,289.8c0,0-11.4,12.5-19.6,18.5c-8.5,6.2-21,13.9-37.9,19"/>
		</g>
	</g>
	<path class="st6" d="M333.3,395.3c12.2-2.1,24.8-2.1,37,0"/>
	<circle class="st9" cx="359.7" cy="409.9" r="9.2"/>
	<path class="st6" d="M427.7,395.3c12.2-2.1,24.8-2.1,37,0"/>
	<circle class="st9" cx="454" cy="409.9" r="9.2"/>
	<path class="st6" d="M382.8,448.4c3.3,5.7,9.5,9.5,16.6,9.5c7,0,13.2-3.8,16.6-9.5"/>
	<g>
		<path class="st0" d="M434.2,481c0,15.2-15.8,27.4-35.2,27.4s-35.2-12.3-35.2-27.4H434.2z"/>
		<path class="st6" d="M434.2,481c0,15.2-15.8,27.4-35.2,27.4s-35.2-12.3-35.2-27.4H434.2z"/>
	</g>
	<g>
		<path class="st7" d="M266.5,355.2c0,0-23.4-1.7-23.4,22c0,25.3,5.9,40.9,23.4,41.5V355.2z"/>
		<path class="st6" d="M266.5,355.2c0,0-23.4-1.7-23.4,22c0,25.3,5.9,40.9,23.4,41.5V355.2z"/>
	</g>
	<g>
		<path class="st7" d="M529,355.2c0,0,23.4-1.7,23.4,22c0,25.3-5.9,40.9-23.4,41.5V355.2z"/>
		<path class="st6" d="M529,355.2c0,0,23.4-1.7,23.4,22c0,25.3-5.9,40.9-23.4,41.5V355.2z"/>
	</g>
</g>
<g>
	<path class="st14" d="M874.2,344.6h-137c-11,0-20,9-20,20V439c0,11,9,20,20,20H783l22.8,28.4l22.8-28.4h45.7c11,0,20-9,20-20v-74.4
		C894.2,353.6,885.3,344.6,874.2,344.6z"/>
	<path class="st6" d="M874.2,344.6h-137c-11,0-20,9-20,20V439c0,11,9,20,20,20H783l22.8,28.4l22.8-28.4h45.7c11,0,20-9,20-20v-74.4
		C894.2,353.6,885.3,344.6,874.2,344.6z"/>
	<g>
		<circle class="st0" cx="769" cy="404.9" r="9.7"/>
		<circle class="st0" cx="845.1" cy="404.9" r="9.7"/>
		<circle class="st0" cx="807.1" cy="404.9" r="9.7"/>
	</g>
</g>
</svg>
